<svg width="274" height="253" viewBox="0 0 274 253" fill="none" xmlns="http://www.w3.org/2000/svg">
<path d="M91 5.20898H246.605C258.513 5.20898 268.167 14.127 268.167 25.1282V44.6472H112.345L91 5.20898Z" fill="#D8504F"/>
<path d="M112.683 44.7825L91.2738 5.20898H27.3591C15.3624 5.20898 5.63672 14.1976 5.63672 25.2851V179.333H268.971V44.7825H112.683Z" fill="white"/>
<path d="M105.153 210.818V208.354H169.453V210.818C169.453 220.348 177.85 228.073 188.208 228.073V228.073C198.565 228.073 206.962 235.798 206.962 245.327V247.792H67.6445V245.327C67.6445 235.798 76.0411 228.073 86.3988 228.073V228.073C96.7565 228.073 105.153 220.348 105.153 210.818Z" fill="#F4DCD5"/>
<path d="M268.971 178.588H5.63672V188.509C5.63672 199.468 15.2222 208.353 27.046 208.353H247.562C259.385 208.353 268.971 199.468 268.971 188.509V178.588Z" fill="#69D8A6"/>
<path d="M60.4883 124.412C60.4883 123.775 60.6749 123.138 61.0498 122.501L80.0609 88.245C80.9155 86.5802 82.3872 85.7461 84.4728 85.7461C85.5418 85.7461 86.6787 86.1053 87.8819 86.8204C89.0852 87.5374 89.6868 88.4145 89.6868 89.4521C89.6868 89.798 89.5526 90.2186 89.2857 90.7117L73.8843 119.175H83.2695V111.019C83.2695 109.983 83.777 109.194 84.7936 108.65C85.8086 108.106 87.0397 107.834 88.4836 107.834C89.9275 107.834 91.1569 108.106 92.1735 108.65C93.1885 109.194 93.6976 109.983 93.6976 111.019V119.175H97.4677C98.4827 119.175 99.2849 119.594 99.8742 120.433C100.462 121.271 100.757 122.271 100.757 123.434C100.757 124.505 100.422 125.472 99.7539 126.333C99.0849 127.195 98.3228 127.625 97.4677 127.625H93.6976V136.755C93.6976 137.736 93.1885 138.51 92.1735 139.077C91.1569 139.644 89.9275 139.929 88.4836 139.929C87.0921 139.929 85.8766 139.645 84.8338 139.077C83.7909 138.509 83.2695 137.736 83.2695 136.755V127.625H64.0178C63.0012 127.625 62.1589 127.333 61.491 126.751C60.822 126.17 60.4883 125.39 60.4883 124.412Z" fill="#1C1F9D"/>
<path fill-rule="evenodd" clip-rule="evenodd" d="M113.027 102.72V123.4C113.027 129.281 114.725 133.579 118.121 136.297C121.516 139.015 126.075 140.373 131.798 140.373C137.519 140.373 142.092 139.015 145.515 136.297C148.937 133.58 150.649 129.281 150.649 123.4V102.72C150.649 96.8396 148.936 92.5405 145.515 89.8228C142.092 87.1055 137.519 85.7461 131.798 85.7461C126.075 85.7461 121.516 87.1055 118.121 89.8228C114.725 92.5405 113.027 96.84 113.027 102.72ZM131.798 131.924C126.236 131.924 123.455 129.083 123.455 123.4V102.72C123.455 97.0382 126.236 94.1959 131.798 94.1959C137.413 94.1959 140.221 97.0382 140.221 102.72V123.4C140.221 129.083 137.413 131.924 131.798 131.924Z" fill="#1C1F9D"/>
<path d="M162.68 124.412C162.68 123.775 162.866 123.138 163.241 122.501L182.253 88.245C183.107 86.5802 184.579 85.7461 186.665 85.7461C187.733 85.7461 188.871 86.1053 190.074 86.8204C191.277 87.5374 191.879 88.4145 191.879 89.4521C191.879 89.798 191.744 90.2186 191.478 90.7117L176.076 119.175H185.461V111.019C185.461 109.983 185.969 109.194 186.986 108.65C188.001 108.106 189.231 107.834 190.676 107.834C192.119 107.834 193.348 108.106 194.365 108.65C195.38 109.194 195.89 109.983 195.89 111.019V119.175H199.659C200.674 119.175 201.476 119.594 202.066 120.433C202.654 121.271 202.948 122.271 202.948 123.434C202.948 124.505 202.614 125.472 201.945 126.333C201.276 127.195 200.514 127.625 199.659 127.625H195.89V136.755C195.89 137.736 195.38 138.51 194.365 139.077C193.348 139.644 192.119 139.929 190.676 139.929C189.284 139.929 188.068 139.645 187.025 139.077C185.983 138.51 185.461 137.736 185.461 136.755V127.625H166.21C165.193 127.625 164.35 127.333 163.682 126.751C163.013 126.17 162.68 125.39 162.68 124.412Z" fill="#1C1F9D"/>
<path fill-rule="evenodd" clip-rule="evenodd" d="M90.9111 0H246.847C261.711 0 273.803 11.1735 273.803 24.9076V188.762C273.803 202.385 261.808 213.469 247.064 213.469H174.604C175.847 219.1 181.248 223.352 187.705 223.352C200.974 223.352 211.769 233.327 211.769 245.588V248.059C211.769 250.787 209.375 253 206.422 253H67.3812C64.4277 253 62.0335 250.787 62.0335 248.059V245.588C62.0335 233.327 72.8289 223.352 86.0982 223.352C92.5545 223.352 97.9562 219.1 99.1985 213.469H26.7386C11.9949 213.469 0 202.385 0 188.762V24.9961C0 11.213 12.135 0 27.0514 0H90.9111ZM263.108 49.4141H10.6954V173.938H263.108V49.4141ZM246.847 9.88281C255.813 9.88281 263.108 16.6234 263.108 24.9077V39.5312H115.607L99.5638 9.88281H246.847ZM87.6063 9.88281H27.0514C18.033 9.88281 10.6954 16.6629 10.6954 24.9961V39.5312H103.649L98.3017 29.6484H48.1294C45.1828 29.6484 42.7817 27.4297 42.7817 24.707C42.7817 21.9843 45.1828 19.7656 48.1294 19.7656H92.954L87.6063 9.88281ZM167.712 223.352H148.399C145.452 223.352 143.051 225.57 143.051 228.293C143.051 231.016 145.452 233.234 148.399 233.234H187.705C194.161 233.234 199.563 237.486 200.806 243.117H72.9973C74.2396 237.486 79.6418 233.234 86.0981 233.234C98.4636 233.234 108.681 224.572 110.015 213.469H163.788C164.224 217.097 165.613 220.461 167.712 223.352ZM247.064 203.586C255.911 203.586 263.108 196.936 263.108 188.762V183.82H10.6954V188.762C10.6954 196.936 17.8924 203.586 26.7386 203.586H104.815H168.988H247.064Z" fill="#1C1F9D"/>
<path d="M247.063 29.6484C250.014 29.6484 252.41 27.4347 252.41 24.707C252.41 21.9789 250.014 19.7656 247.063 19.7656C244.11 19.7656 241.715 21.9789 241.715 24.707C241.715 27.4347 244.11 29.6484 247.063 29.6484Z" fill="#1C1F9D"/>
<path d="M225.672 29.6484C228.624 29.6484 231.02 27.4347 231.02 24.707C231.02 21.9789 228.624 19.7656 225.672 19.7656C222.719 19.7656 220.324 21.9789 220.324 24.707C220.324 27.4347 222.719 29.6484 225.672 29.6484Z" fill="#1C1F9D"/>
<path d="M204.281 29.6484C207.233 29.6484 209.629 27.4347 209.629 24.707C209.629 21.9789 207.233 19.7656 204.281 19.7656C201.329 19.7656 198.934 21.9789 198.934 24.707C198.934 27.4347 201.329 29.6484 204.281 29.6484Z" fill="#1C1F9D"/>
<path d="M127.008 233.234C129.954 233.234 132.356 231.016 132.356 228.293C132.356 225.57 129.954 223.352 127.008 223.352C124.061 223.352 121.66 225.57 121.66 228.293C121.66 231.016 124.061 233.234 127.008 233.234Z" fill="#1C1F9D"/>
<path d="M26.7383 29.6484C29.6849 29.6484 32.0861 27.4297 32.0861 24.707C32.0861 21.9843 29.6849 19.7656 26.7383 19.7656C23.7917 19.7656 21.3906 21.9843 21.3906 24.707C21.3906 27.4297 23.7917 29.6484 26.7383 29.6484Z" fill="#1C1F9D"/>
</svg>
