<svg width="30" height="31" viewBox="0 0 30 31" fill="none" xmlns="http://www.w3.org/2000/svg">
<path fill-rule="evenodd" clip-rule="evenodd" d="M13.3353 23.1833C14.1164 22.4022 15.3827 22.4022 16.1638 23.1833L22.5032 29.5228C23.2843 30.3038 24.5506 30.3038 25.3317 29.5228L28.9196 25.9348C29.7006 25.1538 29.7006 23.8875 28.9196 23.1064L22.5801 16.767C21.7991 15.9859 21.7991 14.7196 22.5801 13.9385L28.9154 7.60326C29.6964 6.82221 29.6964 5.55588 28.9154 4.77483L25.3275 1.18692C24.5464 0.405869 23.2801 0.405872 22.499 1.18692L16.1638 7.52219C15.3827 8.30324 14.1164 8.30324 13.3353 7.52219L6.99925 1.18611C6.2182 0.405059 4.95188 0.405058 4.17083 1.18611L0.582915 4.77402C-0.198134 5.55507 -0.198134 6.8214 0.582915 7.60245L6.91899 13.9385C7.70004 14.7196 7.70004 15.9859 6.91899 16.767L0.578721 23.1072C-0.202328 23.8883 -0.202328 25.1546 0.578721 25.9357L4.16663 29.5236C4.94768 30.3046 6.21401 30.3046 6.99506 29.5236L13.3353 23.1833Z" fill="#680000"/>
</svg>
