<svg width="1575" height="1001" viewBox="0 0 1575 1001" fill="none" xmlns="http://www.w3.org/2000/svg">
<path d="M0 767.458C0 743.701 20.5856 725.179 44.2111 727.68L320.656 756.946C337.861 758.768 351.946 771.445 355.561 788.365L390.666 952.641C395.986 977.535 377.006 1001 351.549 1001H40C17.9086 1001 0 983.091 0 961V767.458Z" fill="black"/>
<path d="M4 50C4 22.3857 26.3858 0 54 0H1322.09C1346.17 0 1366.5 17.8887 1369.56 41.7709C1372.62 65.653 1392.95 83.5417 1417.03 83.5417H1525C1552.61 83.5417 1575 105.927 1575 133.542V951C1575 978.614 1552.61 1001 1525 1001H467.281C445.152 1001 425.654 986.453 419.352 965.24L363.046 775.719C357.541 757.189 341.848 743.492 322.744 740.543L46.3728 697.886C21.9923 694.122 4 673.14 4 648.471V50Z" fill="#383838"/>
</svg>
