<svg width="189" height="123" viewBox="0 0 189 123" fill="none" xmlns="http://www.w3.org/2000/svg">
<path fill-rule="evenodd" clip-rule="evenodd" d="M174.795 91.1565C174.457 91.1249 174.129 90.9667 173.888 90.682L172.663 89.2293C171.967 88.4044 170.878 88.0231 169.819 88.2339L168.108 88.5747C165.472 89.0997 163.52 91.3353 163.356 94.0183L162.006 116.115C161.893 117.964 163.422 119.497 165.272 119.388C166.72 119.302 167.913 118.221 168.141 116.789L170.485 102.056C170.548 101.657 171.1 101.604 171.239 101.983C171.279 102.095 171.324 102.203 171.372 102.308C172.76 105.526 177.623 105.402 178.693 101.833C178.809 101.447 179.363 101.467 179.449 101.861L182.656 116.431C182.968 117.848 184.223 118.857 185.673 118.857C187.526 118.857 188.963 117.237 188.741 115.397L186.093 93.4183C185.771 90.7496 183.691 88.6327 181.029 88.2637L179.301 88.0242C178.232 87.8761 177.167 88.3208 176.52 89.1852L175.383 90.7076C175.225 90.918 175.02 91.0683 174.795 91.1565Z" fill="white"/>
<rect x="90.1133" y="7.91992" width="12.3389" height="56.6272" rx="6.16947" transform="rotate(-3.58656 90.1133 7.91992)" fill="white"/>
<rect x="124" y="78.7539" width="12.3389" height="42.8267" rx="6.16947" transform="rotate(-3.52504 124 78.7539)" fill="white"/>
<path fill-rule="evenodd" clip-rule="evenodd" d="M139.376 7.20031C142.16 9.05555 143.347 13.0517 142.027 16.1259L132.202 39.0057L141.538 56.2562C143.13 59.1986 142.309 63.2856 139.704 65.3847C137.099 67.4839 133.696 66.8003 132.103 63.8579L126.207 52.964L121.766 63.3059C120.446 66.3802 117.119 67.3683 114.335 65.5131C111.55 63.6579 110.364 59.6617 111.684 56.5875L118.977 39.6042L107.125 17.7055C105.533 14.763 106.354 10.676 108.959 8.57689C111.564 6.47774 114.967 7.16134 116.56 10.1038L124.971 25.6459L131.944 9.40748C133.265 6.33325 136.592 5.34507 139.376 7.20031Z" fill="white"/>
<path d="M73.3915 67.6748C77.0798 67.265 80.6452 69.1451 82.3904 72.4201L82.4786 72.5855C83.4591 74.4255 83.7349 76.5598 83.2544 78.5885C82.4889 81.8209 79.9237 84.3192 76.6723 84.9993L71.4725 86.0868C67.335 86.9522 63.7244 89.4564 61.464 93.0283L60.2563 94.9368C57.6705 99.023 57.7478 104.252 60.4532 108.26L61.0529 109.148C62.61 111.455 65.0762 112.989 67.8337 113.367C69.2603 113.562 70.7124 113.439 72.0862 113.008L74.6584 112.201C77.0828 111.441 79.0215 109.605 79.9137 107.226L80.2978 106.202C80.7505 104.995 80.7505 103.664 80.2978 102.457C79.5171 100.375 77.5272 98.9961 75.304 98.9961H73.8204C73.2751 98.9961 72.7314 99.0558 72.1991 99.1741L67.9986 100.108C67.3607 100.249 66.6926 100.124 66.1489 99.762C65.4377 99.2879 65.0328 98.471 65.0861 97.618L65.3384 93.5824C65.4354 92.0292 66.4925 90.702 67.9846 90.2599C68.3264 90.1586 68.681 90.1072 69.0375 90.1072H74.9699C76.3198 90.1072 77.6663 90.2439 78.9887 90.5152L81.2836 90.9859C82.7474 91.2862 84.1392 91.8667 85.3825 92.6956C86.7775 93.6256 87.9541 94.8473 88.831 96.2763L88.9717 96.5056C89.9777 98.1449 90.6016 99.9896 90.7973 101.903L90.8172 102.098C90.9386 103.284 90.9042 104.481 90.715 105.658L90.5608 106.618C90.1898 108.926 89.4134 111.15 88.2674 113.187L87.8341 113.958C86.6276 116.103 84.9433 117.941 82.9118 119.33C80.6739 120.86 78.0844 121.798 75.3855 122.055L70.7238 122.499C67.2992 122.825 63.8484 122.262 60.7048 120.865L59.5 120.329L55.2323 117.703C49.75 114.329 46.2267 108.523 45.7656 102.102L45.3132 95.8016C45.1068 92.9282 45.5237 90.0441 46.5352 87.3466L48.0855 83.2125C48.6926 81.5936 49.5071 80.0602 50.5085 78.6508L51.1397 77.7625C53.6455 74.2358 57.2273 71.6167 61.3478 70.2981L66.0241 68.8017C67.0056 68.4876 68.0159 68.2721 69.0401 68.1583L73.3915 67.6748Z" fill="white"/>
<path fill-rule="evenodd" clip-rule="evenodd" d="M109.93 122.839C119.08 121.934 125.507 111.176 124.284 98.81C123.062 86.4439 114.653 77.1524 105.503 78.0569C96.3534 78.9614 89.9267 89.7194 91.1491 102.086C92.3715 114.452 100.78 123.743 109.93 122.839ZM108.368 112.554C113.523 112.044 117.233 106.883 116.654 101.025C116.075 95.1678 111.426 90.8325 106.271 91.3422C101.115 91.8518 97.4051 97.0133 97.9842 102.871C98.5632 108.728 103.212 113.063 108.368 112.554Z" fill="white"/>
<path fill-rule="evenodd" clip-rule="evenodd" d="M148.884 85.9961C146.64 85.9961 144.477 86.8375 142.823 88.3543L142.497 88.6535C140.512 90.4729 139.336 93.0089 139.228 95.6989L139.016 101.003C138.937 102.987 139.153 104.972 139.659 106.893L140.856 111.443C141.212 112.796 141.853 114.058 142.735 115.144L143.764 116.41C146.159 119.358 150.315 120.177 153.649 118.358L156.037 117.056C157.727 116.134 158.597 114.199 158.164 112.323C157.715 110.376 155.981 108.996 153.982 108.996H147.589C146.578 108.996 145.681 108.349 145.361 107.39C144.874 105.928 145.903 104.401 147.441 104.304L151.786 104.03C152.143 104.007 152.498 103.951 152.845 103.862L153.073 103.803C159.413 102.175 161.383 94.1405 156.515 89.7647L154.88 88.2951C153.234 86.815 151.098 85.9961 148.884 85.9961ZM149.361 97.9981C151.146 98.0096 152.897 98.0208 152.897 96.4961C152.897 94.8392 151.397 92.9961 150.397 91.9961C148.464 91.9961 142.899 93.4961 143.898 96.4961C143.898 98.0251 146.509 98.0095 148.431 97.998C148.592 97.997 148.748 97.9961 148.897 97.9961C149.051 97.9961 149.206 97.9971 149.361 97.9981Z" fill="white"/>
<path d="M50.1502 6.21773C53.102 3.9894 57.3069 6.25758 57.066 9.9482L56.8872 12.6876C56.8105 13.8632 57.1079 15.033 57.7368 16.0292L67.0868 30.8389C68.5506 33.1574 72.1412 31.8258 71.7394 29.1136C71.5935 28.1291 70.8852 27.3209 69.9282 27.0472L59.7135 24.1261C59.0254 23.9293 58.2851 24.1355 57.7979 24.6596L56.196 26.3826C49.3412 33.7556 37.9368 34.5328 30.1451 28.1578C28.9903 27.2129 27.2465 27.9 27.0467 29.3788L25.0037 44.4967L22.8589 57.8112C22.1917 61.9526 18.6172 64.9974 14.4224 64.9974C9.14218 64.9974 5.1256 60.2564 5.99328 55.0479L12.4559 16.2548C13.8645 7.79922 20.7635 1.33585 29.2928 0.480887L33.6104 0.0481016C36.432 -0.23473 39.2349 0.739526 41.2728 2.71143L44.5415 5.87429C46.0713 7.35453 48.4512 7.50027 50.1502 6.21773Z" fill="white"/>
<path d="M37.5256 6.21773C34.5738 3.9894 30.3689 6.25758 30.6098 9.9482L30.787 12.6629C30.8647 13.8537 30.5578 15.0379 29.9115 16.041L19.4288 32.3107C17.3112 35.5974 12.2154 33.4924 13.0346 29.6694C13.319 28.3423 14.3417 27.2973 15.6624 26.9845L27.9508 24.0737C28.6511 23.9079 29.3865 24.131 29.8765 24.6581L31.4798 26.3826C38.3346 33.7556 49.739 34.5328 57.5306 28.1578C58.6855 27.2129 60.4292 27.9 60.6291 29.3788L62.672 44.4967L64.8169 57.8112C65.484 61.9526 69.0586 64.9974 73.2534 64.9974C78.5336 64.9974 82.5502 60.2564 81.6825 55.0479L75.2199 16.2548C73.8113 7.79922 66.9123 1.33585 58.383 0.480887L54.0654 0.0481016C51.2438 -0.23473 48.4409 0.739526 46.403 2.71143L43.1343 5.87429C41.6045 7.35453 39.2246 7.50027 37.5256 6.21773Z" fill="white"/>
<path d="M28 36.9961H40V37.9961C40 41.3098 37.3137 43.9961 34 43.9961C30.6863 43.9961 28 41.3098 28 37.9961V36.9961Z" fill="white"/>
<path d="M10.9805 11.9961L6.84887 31.5533C3.06636 30.7543 0.647814 27.0402 1.44689 23.2576L2.68477 17.3981C3.48385 13.6156 7.19796 11.197 10.9805 11.9961Z" fill="white"/>
<path d="M77 11.4434L81.1316 31.0006C84.9141 30.2015 87.3327 26.4874 86.5336 22.7049L85.2957 16.8453C84.4966 13.0628 80.7825 10.6443 77 11.4434Z" fill="white"/>
<path d="M49 36.9961H61V37.9961C61 41.3098 58.3137 43.9961 55 43.9961C51.6863 43.9961 49 41.3098 49 37.9961V36.9961Z" fill="white"/>
<rect x="31" y="50.9961" width="28" height="6" rx="3" fill="white"/>
<path d="M34.5 48.9961H38.5L40.5 50.9961H34L34.5 48.9961Z" fill="white"/>
</svg>
