<svg width="185" height="183" viewBox="0 0 185 183" fill="none" xmlns="http://www.w3.org/2000/svg">
<rect width="185" height="183" fill="#5A5A5A"/>
<circle cx="92" cy="91" r="65" fill="black"/>
<circle cx="92" cy="91" r="25" fill="#81D8F3"/>
<path fill-rule="evenodd" clip-rule="evenodd" d="M88 95C88.5523 95 89 95.4477 89 96V104C89 104.552 89.4477 105 90 105H95C95.5523 105 96 104.552 96 104V96C96 95.4477 96.4477 95 97 95H105C105.552 95 106 94.5523 106 94V89C106 88.4477 105.552 88 105 88H97C96.4477 88 96 87.5523 96 87V79C96 78.4477 95.5523 78 95 78H90C89.4477 78 89 78.4477 89 79V87C89 87.5523 88.5523 88 88 88H80C79.4477 88 79 88.4477 79 89V94C79 94.5523 79.4477 95 80 95H88Z" fill="#D9D9D9"/>
<rect x="162.34" y="26.6228" width="4" height="106.176" transform="rotate(18.4172 162.34 26.6228)" fill="#D9D9D9"/>
<rect x="155.004" y="17" width="22.0457" height="9.55068" transform="rotate(18.32 155.004 17)" fill="black"/>
<path d="M120.073 131.713L129.074 127.181L131.074 127.681L132.074 128.181L132.574 128.181L132.574 128.615L121.5 134L120.073 131.713Z" fill="#D9D9D9"/>
</svg>
