<svg width="50" height="50" viewBox="0 0 50 50" fill="none" xmlns="http://www.w3.org/2000/svg">
<path fill-rule="evenodd" clip-rule="evenodd" d="M13.5195 31.4815C16.281 31.4815 18.5195 33.7201 18.5195 36.4815V45C18.5195 47.7614 20.7581 50 23.5195 50H26.4825C29.2439 50 31.4825 47.7614 31.4825 45V36.4815C31.4825 33.7201 33.7211 31.4815 36.4825 31.4815H45C47.7614 31.4815 50 29.2429 50 26.4815V23.5185C50 20.7571 47.7614 18.5185 45 18.5185H36.4825C33.7211 18.5185 31.4825 16.2799 31.4825 13.5185V5C31.4825 2.23858 29.2439 0 26.4825 0H23.5195C20.7581 0 18.5195 2.23858 18.5195 5V13.5185C18.5195 16.2799 16.281 18.5185 13.5195 18.5185H5C2.23858 18.5185 0 20.7571 0 23.5185V26.4815C0 29.2429 2.23858 31.4815 5 31.4815H13.5195Z" fill="white"/>
</svg>
